<svg width="24" height="24" viewBox="0 0 24 24" fill="none" xmlns="http://www.w3.org/2000/svg">
<path fill-rule="evenodd" clip-rule="evenodd" d="M21.8503 21.5257C21.6683 21.8207 21.3473 21.9997 21.0003 21.9997H3.00034C2.65334 21.9997 2.33234 21.8197 2.14934 21.5257C1.96634 21.2297 1.95134 20.8627 2.10534 20.5517L11.1053 2.5517C11.4443 1.8747 12.5553 1.8747 12.8943 2.5517L21.8943 20.5517C22.0483 20.8627 22.0333 21.2287 21.8503 21.5257ZM11.0003 9.9997H13.0003V15.9997H11.0003V9.9997ZM12.0003 19.2497C12.6907 19.2497 13.2503 18.6901 13.2503 17.9997C13.2503 17.3093 12.6907 16.7497 12.0003 16.7497C11.31 16.7497 10.7503 17.3093 10.7503 17.9997C10.7503 18.6901 11.31 19.2497 12.0003 19.2497Z" fill="#D53D5E"/>
</svg>
