<svg width="20" height="28" viewBox="0 0 20 28" fill="none" xmlns="http://www.w3.org/2000/svg">
<g clip-path="url(#clip0_284_17259)">
<path d="M12.6125 0.878145L12.6143 0.878658C14.7054 1.44913 16.523 2.72641 17.7482 4.48306L17.7481 4.48309L17.7528 4.48967C18.6946 5.79444 19.2647 7.32202 19.4049 8.91471L19.4052 8.91771C19.6037 11.0285 19.0696 13.144 17.8887 14.9194L17.8886 14.9194L17.8845 14.9257C16.371 17.2772 14.8577 19.6677 13.4354 22.0872C12.7754 23.1991 12.1837 24.3581 11.6 25.5016C11.3755 25.9413 11.1521 26.3788 10.9265 26.8104L10.9154 26.8318L10.9063 26.8541C10.7766 27.1741 10.4822 27.4073 10.1273 27.461L10.1273 27.461L10.1222 27.4618C9.96396 27.4874 9.80139 27.4696 9.65273 27.4105C9.50534 27.352 9.37803 27.2552 9.28421 27.1317C9.19321 27.0087 9.11472 26.877 9.04978 26.7387L9.04611 26.7309L9.04217 26.7232C8.92972 26.5039 8.81732 26.2842 8.70483 26.0644C7.30778 23.3346 5.89743 20.5788 4.21758 17.9522L4.21701 17.9513C3.65386 17.0748 3.05732 16.217 2.44501 15.3783L2.44508 15.3783L2.43926 15.3706C1.50826 14.1456 0.89661 12.7161 0.65688 11.2064L0.656901 11.2064L0.656136 11.2018C0.242037 8.74081 0.884151 6.21997 2.43157 4.23951L2.43164 4.23956L2.43707 4.23234C3.84181 2.36592 5.91459 1.08963 8.24 0.663L8.24001 0.663063L8.24788 0.661489C8.4802 0.615002 8.7024 0.584296 8.94091 0.551335C9.05604 0.535425 9.17497 0.518989 9.30068 0.5L10.8134 0.500006C11.0175 0.541962 11.2137 0.578989 11.4052 0.615098C11.8205 0.693444 12.2129 0.767469 12.6125 0.878145Z" fill="#FFED00" stroke="#003B8E"/>
<path d="M10.0002 13.9745C11.1285 13.9701 12.2089 13.5251 13.0037 12.7374C13.7983 11.9498 14.2423 10.8839 14.2378 9.77424C14.2332 8.66479 13.7804 7.60241 12.9794 6.82111C12.1784 6.03957 11.0944 5.60302 9.96611 5.60746C8.83757 5.61191 7.75715 6.05713 6.96257 6.84479C6.16776 7.63245 5.72404 8.69831 5.72855 9.80775C5.73665 10.9162 6.19039 11.9765 6.99068 12.7573C7.79099 13.538 8.87282 13.9754 10.0001 13.9745H10.0002Z" fill="white"/>
</g>
<defs>
<clipPath id="clip0_284_17259">
<rect width="20" height="28" fill="white"/>
</clipPath>
</defs>
</svg>
