<svg width="28" height="40" viewBox="0 0 28 40" fill="none" xmlns="http://www.w3.org/2000/svg">
<g clip-path="url(#clip0_284_17260)">
<path d="M17.7068 1.04728L17.7087 1.04781C20.6787 1.87464 23.2635 3.72672 25.0072 6.2779L25.0072 6.27793L25.0118 6.28451C26.3524 8.17966 27.1647 10.3997 27.3644 12.7156L27.3647 12.7186C27.6475 15.7857 26.8866 18.8586 25.2065 21.436L25.2065 21.436L25.2025 21.4423C23.0839 24.8011 20.967 28.2133 18.978 31.6659C18.0577 33.2481 17.234 34.8944 16.4178 36.5258C16.1027 37.1554 15.7889 37.7828 15.471 38.4034L15.4601 38.4246L15.4513 38.4468C15.2404 38.9775 14.7662 39.3555 14.2051 39.4421L14.1999 39.4429C13.9445 39.4851 13.6822 39.4558 13.4417 39.3584C13.2024 39.2615 12.9938 39.1001 12.8391 38.8919C12.7031 38.7045 12.5858 38.5037 12.4887 38.2928L12.4852 38.2851L12.4813 38.2774C12.3241 37.9644 12.167 37.6512 12.0098 37.3377C10.053 33.4362 8.08303 29.5084 5.73701 25.7653L5.73645 25.7644C4.95079 24.5167 4.1181 23.2948 3.26273 22.0993L3.2628 22.0992L3.25709 22.0915C1.93289 20.3136 1.06213 18.2377 0.720805 16.0443L0.720069 16.0398C0.129942 12.461 1.04554 8.79702 3.24803 5.92064L3.2481 5.92069L3.25343 5.91345C5.25197 3.20389 8.19839 1.35416 11.5001 0.736044L11.5001 0.73611L11.5081 0.734475C11.8387 0.666988 12.1593 0.621739 12.4972 0.574065C12.6614 0.550894 12.8297 0.527149 13.0051 0.5L15.1565 0.500008C15.4417 0.560028 15.7189 0.613412 15.991 0.665805C16.5774 0.778718 17.1399 0.887034 17.7068 1.04728Z" fill="#0055CC" stroke="#003B8E"/>
<path d="M14.032 22C16.1536 21.9915 18.1851 21.1405 19.6796 19.6344C21.1736 18.1282 22.0084 16.09 21.9999 13.968C21.9914 11.8464 21.14 9.81491 19.6339 8.32087C18.1277 6.82637 16.0895 5.99158 13.968 6.00006C11.846 6.00857 9.81444 6.85996 8.3204 8.36616C6.82591 9.87235 5.99158 11.9105 6.00006 14.0321C6.01529 16.1518 6.86847 18.1793 8.37326 19.6724C9.87807 21.1652 11.9122 22.0017 14.0319 22H14.032Z" fill="white"/>
</g>
<defs>
<clipPath id="clip0_284_17260">
<rect width="28" height="40" fill="white"/>
</clipPath>
</defs>
</svg>
