<svg width="27" height="19" viewBox="0 0 27 19" fill="none" xmlns="http://www.w3.org/2000/svg">
<path fill-rule="evenodd" clip-rule="evenodd" d="M22.1573 0H4.50933L0 9.01867V16H2.66667C2.66667 17.472 3.86267 18.6667 5.33333 18.6667C6.804 18.6667 8 17.472 8 16H18.6667C18.6667 17.472 19.8627 18.6667 21.3333 18.6667C22.804 18.6667 24 17.472 24 16H26.6667V9.01867L22.1573 0ZM6.1569 2.66699H20.5089L23.1756 8.00033H3.49023L6.1569 2.66699ZM9.33398 13.3337H17.334V10.667H9.33398V13.3337ZM2.66602 10.667H6.66602V13.3337H2.66602V10.667ZM20 10.667V13.3337H24V10.667H20Z" fill="#D2373C"/>
</svg>
