<svg width="24" height="24" viewBox="0 0 24 24" fill="none" xmlns="http://www.w3.org/2000/svg">
<path fill-rule="evenodd" clip-rule="evenodd" d="M20 4.33301H10C8.896 4.33301 8 5.19359 8 6.24967V7.20801H6C3.795 7.20801 2 8.92726 2 11.0413V16.7913C2 17.3203 2.447 17.7497 3 17.7497H5.185C5.599 18.8633 6.698 19.6663 8 19.6663C9.302 19.6663 10.401 18.8633 10.816 17.7497H14.184C14.598 18.8633 15.698 19.6663 16.999 19.6663C18.3 19.6663 19.4 18.8633 19.815 17.7497H21C21.553 17.7497 22 17.3203 22 16.7913V6.24967C22 5.19359 21.104 4.33301 20 4.33301ZM20 15.833H19.816C19.401 14.7194 18.301 13.9163 17 13.9163C15.699 13.9163 14.599 14.7194 14.184 15.833H10.817C10.647 15.3788 10.367 14.981 10.001 14.6648V6.24967H20V15.833ZM6 9.12467C4.896 9.12467 4 9.9843 4 11.0413V15.833H5.184C5.599 14.7194 6.698 13.9163 8 13.9163V9.12467H6ZM8 17.7497C7.449 17.7497 7 17.3203 7 16.7913C7 16.2633 7.449 15.833 8 15.833C8.551 15.833 9 16.2633 9 16.7913C9 17.3203 8.551 17.7497 8 17.7497ZM16 16.7913C16 17.3203 16.449 17.7497 17 17.7497C17.551 17.7497 18 17.3203 18 16.7913C18 16.2633 17.551 15.833 17 15.833C16.449 15.833 16 16.2633 16 16.7913Z" fill="#333332"/>
</svg>
