<svg width="24" height="24" viewBox="0 0 24 24" fill="none" xmlns="http://www.w3.org/2000/svg">
<path fill-rule="evenodd" clip-rule="evenodd" d="M12 12.5334C11.861 12.5334 11.723 12.5044 11.594 12.4474L2.594 8.44743C2.232 8.28743 2 7.92943 2 7.53343C2 7.13743 2.232 6.78043 2.594 6.62043L11.594 2.62043C11.853 2.50543 12.148 2.50543 12.407 2.62043L21.407 6.62043C21.768 6.78043 22 7.13843 22 7.53343C22 7.92843 21.768 8.28643 21.406 8.44743L12.406 12.4474C12.277 12.5044 12.139 12.5334 12 12.5334ZM5.463 7.53343L12 10.4394L18.537 7.53343L12 4.62743L5.463 7.53343ZM22 9.89246L11.982 14.4445L2 10.2845V12.4505L11.615 16.4585C11.738 16.5115 11.869 16.5335 12 16.5335C12.141 16.5335 12.282 16.5045 12.413 16.4465L22 12.0895V9.89246ZM11.982 18.4445L22 13.8925V16.0895L12.413 20.4465C12.282 20.5045 12.141 20.5335 12 20.5335C11.869 20.5335 11.738 20.5115 11.615 20.4585L2 16.4505V14.2845L11.982 18.4445Z" fill="#0055CC"/>
</svg>
