<svg width="33" height="33" viewBox="0 0 33 33" fill="none" xmlns="http://www.w3.org/2000/svg">
<path d="M20.7082 28.8205C21.5498 27.5014 21.5929 25.9518 20.8256 24.5969C20.5637 24.1342 19.803 23.3933 19.3521 23.1559C19.1673 23.0595 18.9789 22.9519 18.9382 22.9186C18.8791 22.8741 19.0506 21.9793 19.6577 19.1878L20.4511 15.5163L20.8025 15.4984C21.8012 15.4481 22.5747 15.1349 23.3265 14.4814C24.3969 13.5399 24.8912 11.9687 24.5493 10.6034C23.8875 7.99122 21.0156 6.77001 18.6612 8.1053C18.2429 8.33768 17.4984 9.07996 17.2573 9.50493C16.9866 9.97424 16.7822 10.636 16.7295 11.2203L16.6843 11.7454L13.0141 12.5313C10.2245 13.1262 9.32917 13.295 9.28488 13.2357C9.25165 13.195 9.14838 13.0099 9.0488 12.8211C8.81278 12.3695 8.07423 11.6065 7.60861 11.3395C6.37437 10.6275 4.79877 10.6251 3.56976 11.3333C3.14776 11.5694 2.39951 12.3154 2.16216 12.7367C1.45016 13.9635 1.44774 15.5465 2.156 16.7755C2.39206 17.1975 3.13803 17.9458 3.55931 18.1831C4.78985 18.8988 6.36915 18.8975 7.59816 18.1893C8.02757 17.9458 8.76841 17.2072 9.00946 16.7897C9.27648 16.3166 9.48091 15.6549 9.53358 15.0706L9.57877 14.5455L13.2675 13.7559C16.0904 13.1574 16.9672 12.9923 16.9967 13.0515C17.3396 13.7362 17.3987 13.8177 17.8899 14.3104C18.381 14.803 18.4623 14.8623 19.146 15.2073C19.2051 15.237 19.0374 16.1133 18.4302 18.9344L17.6294 22.6207L17.1485 22.6643C16.5566 22.7152 15.898 22.9139 15.4167 23.1943C14.9503 23.4599 14.3206 24.0729 14.0425 24.52C13.2713 25.7763 13.2652 27.3852 14.0325 28.6809C14.2981 29.1325 14.9185 29.7474 15.3952 30.0256C16.6184 30.7413 18.1755 30.7473 19.3897 30.0538C19.7969 29.8252 20.4747 29.1863 20.7082 28.8205Z" fill="#333332"/>
</svg>
