<svg width="24" height="24" viewBox="0 0 24 24" fill="none" xmlns="http://www.w3.org/2000/svg">
<path fill-rule="evenodd" clip-rule="evenodd" d="M21 17.0001C21 17.3341 20.833 17.6471 20.555 17.8321L14.549 21.8241C14.395 21.9271 14.266 22.0001 14 22.0001C13.777 22.0001 13.556 21.9261 13.376 21.7811L8.947 18.2381L3.555 21.8321C3.387 21.9441 3.194 22.0001 3 22.0001C2.838 22.0001 2.676 21.9621 2.528 21.8821C2.203 21.7081 2 21.3691 2 21.0001V7.00014C2 6.66714 2.167 6.35414 2.445 6.16814L8.445 2.16814C8.6 2.06614 8.829 2.00014 9.035 2.00814C9.25 2.01614 9.475 2.10214 9.625 2.21914L14.054 5.76314L19.446 2.16814C19.752 1.96314 20.147 1.94414 20.472 2.11914C20.797 2.29214 21 2.63114 21 3.00014V17.0001ZM8 4.86914L4 7.53514V19.1321L8 16.4651V4.86914ZM13 18.9201L10 16.5201V5.08214L13 7.48114V18.9201ZM15 19.1321L19 16.4651V4.86914L15 7.53514V19.1321Z" fill="#0055CC"/>
</svg>
